<?xml version="1.0" standalone="no"?>
<!DOCTYPE svg PUBLIC "-//W3C//DTD SVG 20010904//EN"
 "http://www.w3.org/TR/2001/REC-SVG-20010904/DTD/svg10.dtd">
<svg version="1.0" xmlns="http://www.w3.org/2000/svg"
 width="400.000000pt" height="400.000000pt" viewBox="0 0 400.000000 400.000000"
 preserveAspectRatio="xMidYMid meet">
<metadata>
Created by potrace 1.11, written by Peter Selinger 2001-2013
</metadata>
<g transform="translate(0.000000,400.000000) scale(0.100000,-0.100000)"
fill="#000000" stroke="none">
<path d="M1829 3993 l-26 -4 18 -72 c9 -40 162 -650 339 -1357 177 -707 324
-1294 326 -1305 2 -11 10 -40 17 -65 l13 -45 28 105 c15 58 32 119 37 135 5
17 39 138 75 270 36 132 72 265 81 295 8 30 16 62 18 71 2 9 12 47 24 85 17
60 92 331 267 974 25 91 49 179 55 195 5 17 27 97 50 179 l40 150 -32 25
c-174 137 -549 298 -779 335 -14 3 -44 7 -68 11 -23 4 -54 9 -70 11 -35 6
-379 11 -413 7z"/>
<path d="M1060 3764 c-374 -200 -669 -506 -856 -889 -52 -108 -125 -297 -139
-364 -2 -9 -10 -48 -19 -87 -8 -38 -18 -92 -22 -120 -3 -27 -8 -58 -11 -69 -3
-11 -6 -105 -8 -210 -4 -312 42 -544 161 -822 66 -154 218 -404 234 -387 4 5
170 662 369 1459 198 798 366 1467 373 1488 6 20 9 39 7 42 -3 2 -43 -16 -89
-41z"/>
<path d="M3591 3163 c-12 -46 -729 -2918 -737 -2952 -5 -22 0 -21 83 24 88 46
260 157 298 192 11 10 34 29 50 41 51 39 174 163 245 247 229 270 402 651 446
980 3 28 8 59 11 70 3 11 6 106 8 210 2 175 -14 361 -38 440 -4 11 -9 36 -12
55 -12 69 -87 277 -140 389 -51 104 -121 226 -180 309 l-24 33 -10 -38z"/>
<path d="M1488 2758 c-3 -18 -138 -565 -302 -1216 -163 -650 -296 -1188 -296
-1195 0 -26 256 -162 415 -222 107 -40 295 -89 385 -100 30 -4 64 -10 75 -12
29 -7 375 -12 406 -6 l26 5 -346 1383 c-190 761 -349 1386 -352 1390 -4 3 -9
-9 -11 -27z"/>
</g>
</svg>
