<?xml version="1.0" encoding="UTF-8"?>
<svg width="200px" height="200px" viewBox="0 0 200 200" version="1.1" xmlns="http://www.w3.org/2000/svg" xmlns:xlink="http://www.w3.org/1999/xlink">
    <!-- Generator: Sketch 49.3 (51167) - http://www.bohemiancoding.com/sketch -->
    <title>Artboard</title>
    <desc>Created with Sketch.</desc>
    <defs></defs>
    <g id="Artboard" stroke="none" stroke-width="1" fill="none" fill-rule="evenodd">
        <path d="M44.243562,183.025752 L74.9881163,60.0475346 L109.879454,199.518143 C106.629453,199.836864 103.333778,200 100,200 C79.3561125,200 60.1732643,193.744547 44.2435623,183.025748 Z M19.9981713,160.007315 C7.44106722,143.292851 0,122.515403 0,100 C0,59.9075713 23.5939424,25.3258032 57.6544924,9.38203052 L19.9981713,160.007315 Z M90.1204687,0.481864895 C93.3705113,0.163137484 96.6662043,0 100,0 C122.327007,0 142.945022,7.31706302 159.586892,19.6840352 L125.714675,142.855727 L90.1204687,0.481864895 Z M180.001829,39.992685 C192.558933,56.7071487 200,77.4845972 200,100 C200,140.092429 176.406058,174.674197 142.345508,190.617969 L180.001829,39.992685 Z" id="Polygon" fill="#7FB9E9"></path>
    </g>
</svg>